<svg width="78" height="78" viewBox="0 0 78 78" fill="none" xmlns="http://www.w3.org/2000/svg">
<circle cx="39" cy="39" r="39" fill="white"/>
<path d="M26.7969 38.8398C26.7969 33.8138 28.1445 29.9401 30.8398 27.2188C33.1836 24.849 36.1654 23.6641 39.7852 23.6641C44.6289 23.6641 48.1706 25.2526 50.4102 28.4297C51.6471 30.2135 52.3112 32.0039 52.4023 33.8008H46.3867C45.9961 32.4206 45.4948 31.3789 44.8828 30.6758C43.7891 29.4258 42.168 28.8008 40.0195 28.8008C37.832 28.8008 36.1068 29.6862 34.8438 31.457C33.5807 33.2148 32.9492 35.7083 32.9492 38.9375C32.9492 42.1667 33.6133 44.5885 34.9414 46.2031C36.2826 47.8047 37.9818 48.6055 40.0391 48.6055C42.1484 48.6055 43.7565 47.9154 44.8633 46.5352C45.4753 45.793 45.9831 44.6797 46.3867 43.1953H52.3438C51.8229 46.3333 50.4883 48.8854 48.3398 50.8516C46.2044 52.8177 43.4635 53.8008 40.1172 53.8008C35.9766 53.8008 32.7214 52.4727 30.3516 49.8164C27.9818 47.1471 26.7969 43.4883 26.7969 38.8398Z" fill="black"/>
</svg>
