<svg width="78" height="78" viewBox="0 0 78 78" fill="none" xmlns="http://www.w3.org/2000/svg">
<circle cx="39" cy="39" r="39" fill="white"/>
<path d="M36.5312 47.3555H42.3516V53H36.5312V47.3555ZM29.4023 33.293C29.5586 29.582 30.8542 26.9518 33.2891 25.4023C34.8255 24.4128 36.7135 23.918 38.9531 23.918C41.8958 23.918 44.3372 24.6211 46.2773 26.0273C48.2305 27.4336 49.207 29.5169 49.207 32.2773C49.207 33.9701 48.7839 35.3958 47.9375 36.5547C47.4427 37.2578 46.4922 38.1562 45.0859 39.25L43.6992 40.3242C42.944 40.9102 42.4427 41.5938 42.1953 42.375C42.0391 42.8698 41.9544 43.638 41.9414 44.6797H36.668C36.7461 42.4792 36.9544 40.9622 37.293 40.1289C37.6315 39.2826 38.5039 38.3125 39.9102 37.2188L41.3359 36.1055C41.8047 35.7539 42.1823 35.3698 42.4688 34.9531C42.9896 34.237 43.25 33.4492 43.25 32.5898C43.25 31.6003 42.957 30.7018 42.3711 29.8945C41.7982 29.0742 40.7435 28.6641 39.207 28.6641C37.6966 28.6641 36.6224 29.1654 35.9844 30.168C35.3594 31.1706 35.0469 32.2122 35.0469 33.293H29.4023Z" fill="black"/>
</svg>
