<svg width="46" height="46" viewBox="0 0 46 46" fill="none" xmlns="http://www.w3.org/2000/svg">
<circle cx="23" cy="23" r="23" fill="white"/>
<path d="M26.6225 13.0074C26.8023 13.0323 26.9715 13.1079 27.1099 13.2252L36.6594 21.1423C36.8752 21.3228 37 21.589 37 21.8695C37 22.1503 36.8752 22.4165 36.6594 22.5969L27.1099 30.5141C26.9236 30.6665 26.686 30.7432 26.4451 30.7286C26.2044 30.714 25.9779 30.6093 25.8116 30.4355C25.6451 30.2616 25.5509 30.0316 25.548 29.7915V26.6346C23.3949 26.6549 15.9894 27.0625 10.5769 31.7708C10.3653 31.9517 10.0846 32.0312 9.80883 31.9888C9.53327 31.9462 9.28992 31.786 9.14315 31.5499C8.99616 31.314 8.96041 31.0259 9.045 30.7615C11.7193 22.5644 19.7569 18.9361 25.5475 17.3617V13.9574C25.5455 13.6835 25.6623 13.422 25.8681 13.2399C26.0739 13.0579 26.3491 12.9734 26.6225 13.0074ZM27.458 15.9763V18.0745C27.458 18.285 27.3879 18.4898 27.2582 18.6563C27.1285 18.8231 26.9469 18.942 26.7417 18.9947C22.0627 20.1733 15.7205 22.8117 12.3776 28.1786C18.773 24.4405 25.9459 24.6966 26.553 24.7248C26.7975 24.7377 27.0279 24.8432 27.1962 25.02C27.3648 25.1969 27.4585 25.4313 27.4582 25.6749V27.7631L34.5704 21.8751L27.458 15.9763Z" fill="black"/>
</svg>
